<svg width="256" height="256" viewBox="0 0 256 256" fill="none" xmlns="http://www.w3.org/2000/svg">
<rect width="256" height="256" fill="white" style="fill:white;fill-opacity:1;"/>
<path d="M101.678 145L33.9665 145C27.3576 145 22 150.397 22 157.054C22 163.711 27.3576 169.108 33.9665 169.108L101.678 169.108C108.287 169.108 113.645 163.711 113.645 157.054C113.645 150.397 108.287 145 101.678 145Z" fill="#C0FF3A" style="fill:#C0FF3A;fill:color(display-p3 0.7529 1.0000 0.2275);fill-opacity:1;"/>
<path d="M37.0396 156.016H42.9417V158.122H37.0396V164.232H34.9042V158.122H29.0021V156.016H34.9042V149.877H37.0396V156.016Z" fill="#241148" style="fill:#241148;fill:color(display-p3 0.1412 0.0667 0.2824);fill-opacity:1;"/>
<path fill-rule="evenodd" clip-rule="evenodd" d="M77.9178 155.878C78.4423 153.211 80.714 151.376 83.6837 151.376C87.0662 151.376 89.5592 153.776 89.5592 157.054C89.5592 160.332 87.0662 162.732 83.6837 162.732C80.6661 162.732 78.3466 160.818 77.8879 158.074H76.426V162.543H73.8691V151.565H76.426V155.878H77.9178ZM49.1562 151.565V162.543H51.713V153.635H56.731V162.543H59.2899V151.565H49.1562ZM62.9417 151.565L62.7821 156.019L62.7482 156.724C62.6066 159.098 62.2257 160.458 61.037 160.458C60.8774 160.458 60.7338 160.442 60.5763 160.395L60.4167 162.543C60.8934 162.653 61.3062 162.716 61.6872 162.716C64.2919 162.716 64.9121 160.238 65.0537 155.925L65.1335 153.635H68.9449V162.543H71.4858V151.565H62.9417ZM83.6837 160.567C81.8408 160.567 80.4128 159.156 80.4128 157.054C80.4128 154.952 81.8408 153.541 83.6837 153.541C85.5265 153.541 86.9565 154.952 86.9565 157.054C86.9565 159.156 85.5265 160.567 83.6837 160.567ZM90.4029 157.054C90.4029 160.363 92.9757 162.732 96.4221 162.732C98.3586 162.732 99.9622 162.042 101.011 160.771L99.3598 159.266C98.6139 160.128 97.6766 160.567 96.5637 160.567C94.4835 160.567 93.0076 159.124 93.0076 157.054C93.0076 154.984 94.4835 153.541 96.5637 153.541C97.6766 153.541 98.6139 153.98 99.3598 154.827L101.011 153.321C99.9622 152.067 98.3586 151.376 96.438 151.376C92.9757 151.376 90.4029 153.745 90.4029 157.054Z" fill="#241148" style="fill:#241148;fill:color(display-p3 0.1412 0.0667 0.2824);fill-opacity:1;"/>
<path d="M58.0746 187.057V194.015H34.5842V199.937H48.9943C52.9422 199.937 55.8374 200.858 57.6798 202.7C59.5222 204.51 60.4434 207.06 60.4434 210.35C60.4434 213.738 59.5222 216.387 57.6798 218.295C55.8374 220.17 52.9422 221.108 48.9943 221.108H25.5038V187.057H58.0746ZM51.1163 209.906C51.1163 208.754 50.7873 207.866 50.1293 207.241C49.4713 206.616 48.4021 206.303 46.9216 206.303H34.5842V214.495H46.9216C49.7181 214.495 51.1163 213.344 51.1163 211.041V209.906ZM97.2817 202.207C97.2817 198.95 96.2783 196.68 94.2714 195.397C92.2974 194.114 89.3365 193.472 85.3885 193.472C81.4405 193.472 78.4631 194.114 76.4562 195.397C74.4493 196.68 73.4459 198.95 73.4459 202.207V205.81C73.4459 207.52 73.6926 208.951 74.1861 210.103C74.7125 211.222 75.4692 212.126 76.4562 212.817C77.4432 213.508 78.6769 214.002 80.1574 214.298C81.6708 214.561 83.4145 214.692 85.3885 214.692C87.3625 214.692 89.0897 214.561 90.5702 214.298C92.0507 214.002 93.2844 213.525 94.2714 212.867C95.2913 212.176 96.048 211.271 96.5415 210.152C97.035 209.001 97.2817 207.553 97.2817 205.81V202.207ZM64.1681 203.885C64.1681 200.595 64.6287 197.831 65.5499 195.594C66.4711 193.324 67.8365 191.515 69.6459 190.166C71.4554 188.817 73.6762 187.846 76.3081 187.254C78.9401 186.662 81.9669 186.366 85.3885 186.366C88.8101 186.366 91.8368 186.662 94.4688 187.254C97.1008 187.846 99.3215 188.817 101.131 190.166C102.941 191.515 104.306 193.324 105.227 195.594C106.148 197.831 106.609 200.595 106.609 203.885C106.609 207.274 106.148 210.119 105.227 212.422C104.306 214.692 102.941 216.535 101.131 217.95C99.3215 219.331 97.1008 220.318 94.4688 220.911C91.8368 221.503 88.8101 221.799 85.3885 221.799C81.9669 221.799 78.9401 221.503 76.3081 220.911C73.6762 220.318 71.4554 219.331 69.6459 217.95C67.8365 216.535 66.4711 214.692 65.5499 212.422C64.6287 210.119 64.1681 207.274 64.1681 203.885ZM121.334 187.057V199.937H139.445V187.057H148.624V221.108H139.445V207.389H121.334V221.108H112.155V187.057H121.334ZM162.386 187.057L173.539 204.428L183.754 187.057H192.785L172.749 221.108H163.768L168.851 212.472L152.269 187.057H162.386ZM192.41 204.132C192.41 200.842 192.854 198.062 193.742 195.792C194.63 193.521 195.93 191.696 197.641 190.314C199.352 188.899 201.424 187.896 203.859 187.303C206.293 186.678 209.074 186.366 212.199 186.366C215.061 186.366 217.611 186.58 219.848 187.007C222.118 187.435 224.059 188.142 225.671 189.129C227.316 190.116 228.616 191.416 229.57 193.028C230.557 194.607 231.166 196.548 231.396 198.851H222.118C221.921 197.766 221.559 196.877 221.033 196.186C220.539 195.495 219.865 194.953 219.009 194.558C218.187 194.13 217.2 193.85 216.048 193.719C214.93 193.554 213.647 193.472 212.199 193.472C210.653 193.472 209.238 193.604 207.955 193.867C206.672 194.097 205.553 194.541 204.599 195.199C203.678 195.824 202.954 196.696 202.428 197.815C201.934 198.933 201.688 200.381 201.688 202.158V206.056C201.688 207.8 201.934 209.231 202.428 210.35C202.954 211.435 203.678 212.307 204.599 212.965C205.52 213.623 206.622 214.084 207.906 214.347C209.222 214.577 210.669 214.692 212.248 214.692C213.63 214.692 214.864 214.627 215.95 214.495C217.068 214.331 218.039 214.067 218.861 213.705C219.717 213.311 220.407 212.801 220.934 212.176C221.493 211.518 221.904 210.679 222.168 209.659H231.445C231.182 211.863 230.557 213.738 229.57 215.285C228.583 216.798 227.267 218.048 225.622 219.035C224.01 219.989 222.069 220.68 219.799 221.108C217.562 221.569 215.028 221.799 212.199 221.799C209.074 221.799 206.293 221.503 203.859 220.911C201.424 220.318 199.352 219.348 197.641 217.999C195.93 216.617 194.63 214.808 193.742 212.57C192.854 210.3 192.41 207.487 192.41 204.132Z" fill="#241148" style="fill:#241148;fill:color(display-p3 0.1412 0.0667 0.2824);fill-opacity:1;"/>
<path d="M55.5059 31.0251H200.421C209.592 31.0251 217.016 38.4489 217.016 47.6203V102.937C217.016 112.107 209.592 119.532 200.421 119.532H148.453L155.586 137L124.216 119.532H55.5796C46.4089 119.532 38.9844 112.108 38.9844 102.937V47.6203C38.9116 38.522 46.3352 31.0251 55.5059 31.0251Z" fill="#241148" style="fill:#241148;fill:color(display-p3 0.1412 0.0667 0.2824);fill-opacity:1;"/>
<path d="M49.1211 46.1509C50.1343 44.7759 51.6541 44.0522 53.6804 43.9074C57.3713 43.618 59.4701 45.3549 59.9767 49.1181C62.2202 64.2439 64.6808 77.0531 67.2864 87.5473L83.1354 57.3688C84.5828 54.6187 86.3921 53.1713 88.5632 53.0266C91.7476 52.8094 93.7015 54.8358 94.4976 59.1057C96.3069 68.7313 98.6227 76.9089 101.373 83.8563C103.254 65.4738 106.439 52.2306 110.926 44.0523C112.012 42.0259 113.604 41.0128 115.703 40.868C117.367 40.7232 118.887 41.2298 120.262 42.3154C121.637 43.401 122.361 44.776 122.505 46.4405C122.578 47.7432 122.361 48.8287 121.782 49.9143C118.959 55.125 116.643 63.8821 114.762 76.0397C112.953 87.8364 112.301 97.0273 112.735 103.613C112.88 105.422 112.591 107.015 111.867 108.39C110.999 109.982 109.696 110.85 108.031 110.995C106.15 111.14 104.196 110.271 102.314 108.317C95.5837 101.442 90.2282 91.1656 86.3205 77.4871C81.6165 86.7503 78.1429 93.6984 75.8994 98.33C71.6296 106.508 68.0111 110.705 64.9713 110.922C63.0173 111.067 61.3528 109.402 59.9054 105.929C56.2145 96.4478 52.234 78.1384 47.964 50.9996C47.6745 49.118 48.1088 47.4535 49.1219 46.1508L49.1211 46.1509ZM204.648 57.513C202.043 52.9536 198.207 50.2032 193.069 49.1177C191.694 48.8282 190.392 48.6834 189.161 48.6834C182.214 48.6834 176.569 52.302 172.155 59.5392C168.391 65.6907 166.51 72.4938 166.51 79.9475C166.51 85.52 167.668 90.2963 169.983 94.2769C172.589 98.8363 176.424 101.587 181.562 102.672C182.937 102.962 184.24 103.106 185.47 103.106C192.49 103.106 198.135 99.4879 202.477 92.2507C206.241 86.0268 208.122 79.2238 208.122 71.7701C208.195 66.1252 206.964 61.4213 204.648 57.513ZM195.53 77.5596C194.517 82.3361 192.707 85.8819 190.03 88.2707C187.931 90.1524 185.977 90.9484 184.168 90.5866C182.431 90.2247 180.983 88.7049 179.898 85.8825C179.029 83.639 178.595 81.3956 178.595 79.2968C178.595 77.4876 178.74 75.6782 179.102 74.0138C179.753 71.0466 180.983 68.1517 182.937 65.4015C185.326 61.8553 187.859 60.4079 190.464 60.9146C192.201 61.2764 193.648 62.7962 194.734 65.6186C195.602 67.8621 196.037 70.1056 196.037 72.2043C196.037 74.086 195.892 75.8951 195.53 77.5596ZM159.344 57.513C156.739 52.9536 152.831 50.2032 147.765 49.1177C146.39 48.8282 145.088 48.6834 143.857 48.6834C136.91 48.6834 131.265 52.302 126.85 59.5392C123.087 65.6907 121.205 72.4938 121.205 79.9475C121.205 85.52 122.363 90.2963 124.679 94.2769C127.285 98.8363 131.12 101.587 136.258 102.672C137.633 102.962 138.936 103.106 140.166 103.106C147.186 103.106 152.831 99.4879 157.173 92.2507C160.936 86.0268 162.818 79.2238 162.818 71.7701C162.818 66.1252 161.66 61.4213 159.344 57.513ZM150.153 77.5596C149.14 82.3361 147.331 85.8819 144.653 88.2707C142.554 90.1524 140.601 90.9484 138.791 90.5866C137.054 90.2247 135.607 88.7049 134.521 85.8825C133.653 83.639 133.219 81.3956 133.219 79.2968C133.219 77.4876 133.363 75.6782 133.725 74.0138C134.377 71.0466 135.607 68.1517 137.561 65.4015C139.949 61.8553 142.482 60.4079 145.088 60.9146C146.825 61.2764 148.272 62.7962 149.357 65.6186C150.226 67.8621 150.66 70.1056 150.66 72.2043C150.732 74.086 150.515 75.8951 150.153 77.5596Z" fill="white" style="fill:white;fill-opacity:1;"/>
</svg>
